<svg xmlns="http://www.w3.org/2000/svg" viewBox="0 0 70 94">
  <g fill="none" fill-rule="evenodd">
    <g fill-rule="nonzero">
      <path fill="#4D4AD0" d="M65.825 15.777C60.455 5.538 49.84.127 35.153.127c-14.79 0-25.48 5.411-30.902 15.65l-.076.127h61.727l-.077-.127z"></path>
      <path fill="#6083E8" d="M69.72 31.401c-.28-5.97-1.604-11.23-3.92-15.624l-.025-.051H4.25l-.026.05C1.884 20.198.56 25.457.28 31.402v.102h69.465l-.025-.102z"></path>
      <path fill="#80D2F8" d="M69.72 31.401v-.076H.28v.076c-.05.915-.05 1.677-.05 2.388v13.287h69.566V33.79c0-.711-.025-1.473-.076-2.388z"></path>
      <path fill="#FDC82E" d="M.204 46.924v13.414c0 .686.025 1.423.05 2.26v.077H69.72V62.6c.025-.864.05-1.575.05-2.261V46.924H.205z"></path>
      <path fill="#FC8124" d="M.255 62.497v.102c.254 5.97 1.578 11.23 3.869 15.624l.025.051h61.702l.025-.05c2.291-4.396 3.59-9.655 3.844-15.625v-.102H.255z"></path>
      <path fill="#FB481E" d="M4.175 78.274c5.141 9.807 15.4 15.599 30.952 15.599h.026c15.45 0 25.607-5.792 30.723-15.599H4.175z"></path>
    </g>
  </g>
</svg>
